<?xml version="1.0" standalone="no"?><!DOCTYPE svg PUBLIC "-//W3C//DTD SVG 1.1//EN" "http://www.w3.org/Graphics/SVG/1.1/DTD/svg11.dtd"><svg t="1620550823304" class="icon" viewBox="0 0 1024 1024" version="1.1" xmlns="http://www.w3.org/2000/svg" p-id="1962" xmlns:xlink="http://www.w3.org/1999/xlink" width="20" height="20"><defs><style type="text/css"></style></defs><path d="M368.64 223.146667a42.666667 42.666667 0 0 0-60.16 5.546666l-213.333333 256a42.666667 42.666667 0 0 0 0 54.186667l206.08 256a42.666667 42.666667 0 0 0 33.28 15.786667 42.666667 42.666667 0 0 0 33.28-69.546667L183.04 512l191.146667-228.693333a42.666667 42.666667 0 0 0-5.546667-60.16zM929.28 485.12l-203.946667-256a42.666667 42.666667 0 0 0-60.16-6.4 42.666667 42.666667 0 0 0-6.4 60.16L840.96 512l-191.146667 229.12a42.666667 42.666667 0 0 0 5.546667 60.16A42.666667 42.666667 0 0 0 682.666667 810.666667a42.666667 42.666667 0 0 0 32.853333-15.36l213.333333-256a42.666667 42.666667 0 0 0 0.426667-54.186667z" p-id="1963"></path></svg>